<svg xmlns="http://www.w3.org/2000/svg" viewBox="0 0 34 31"><defs><style>.cls-1{fill:#367c2b;}.cls-1,.cls-2{fill-rule:evenodd;}.cls-2{fill:#fff;}</style></defs><g id="Layer_2" data-name="Layer 2"><g id="Layer_1-2" data-name="Layer 1"><path class="cls-1" d="M31.6,3.3A34,34,0,0,0,17,0,32.35,32.35,0,0,0,2.4,3.4,32.23,32.23,0,0,0,0,15.5,32.23,32.23,0,0,0,2.4,27.6,32.66,32.66,0,0,0,17,31a33.65,33.65,0,0,0,14.6-3.3A30.74,30.74,0,0,0,34,15.6,30.67,30.67,0,0,0,31.6,3.3Z"/><path class="cls-2" d="M12.4,11.9A14.17,14.17,0,0,0,11,16.7h-.4a14.23,14.23,0,0,0-4.5.8l.1.6a19,19,0,0,0,6.1,4.8l.1-.1-.8-1.2c-.2-.1-.7-.3-.7-.3-1.6-.5-2.8-2.7-3-3.1a11.1,11.1,0,0,1,3.7.8c.8.2,1.5.5,2.2.6a12.64,12.64,0,0,0,3.9-.2c1-.1,2-.1,2.9-.1a8.23,8.23,0,0,0,2.1,1.9,36.53,36.53,0,0,0,4.9,1.7,15.32,15.32,0,0,1,2.3,3,31,31,0,0,1-12.8,2.8A31.49,31.49,0,0,1,4.2,25.9a29.35,29.35,0,0,1-2-10.6,29.75,29.75,0,0,1,2-10.6A31.49,31.49,0,0,1,17.1,1.9,30.68,30.68,0,0,1,29.9,4.7a29.35,29.35,0,0,1,2,10.6A31.8,31.8,0,0,1,30.3,25a25.74,25.74,0,0,0-1.8-2.8,15.08,15.08,0,0,1-2.2-1.3,4,4,0,0,1-.7-1.6,7.74,7.74,0,0,0-1.5-3.2l1.1-.4c-.3-2-2.7-3.4-2.7-3.4l-.1.1a4.88,4.88,0,0,1,1.2,2.7c0,.3,0,.5-.1.6a16.75,16.75,0,0,0-6.1-.5,3,3,0,0,1-2-.5,1.59,1.59,0,0,1-.4-1.2h0a13.93,13.93,0,0,1,.7-3.6l1.1.1c1.3-.7,1.8-1.3,1.8-1.4h-.4c-1.1.1-2.5.4-2.5.4a5.59,5.59,0,0,0,.4-2,2.72,2.72,0,0,0-1.6-2.7l-.1.1a3.16,3.16,0,0,1,.7,1.9,4.4,4.4,0,0,1-.2,1,2,2,0,0,0-1.1-.2,2.94,2.94,0,0,0-2-1.9l-.1.1a2.73,2.73,0,0,1,1.1,1.9,3.93,3.93,0,0,0-1.4.3,2.19,2.19,0,0,0-1.7-.9V6.5a2.18,2.18,0,0,1,1.2,1,11.16,11.16,0,0,0-1.6,1v.2c2.4-.9,4.7-1.2,5.2-.5a.6.6,0,0,1,.1.4,2.54,2.54,0,0,1-.2.7c-1.2.3-3,.8-4.5,1.3l.2.6,2,.4C12.2,11.7,12.5,11.7,12.4,11.9ZM30.6,4.2a32.33,32.33,0,0,0-27.2,0A30.13,30.13,0,0,0,1.3,15.4,32.28,32.28,0,0,0,3.4,26.6a32.25,32.25,0,0,0,13.6,3,32.6,32.6,0,0,0,13.6-3,30.13,30.13,0,0,0,2.1-11.2A30.13,30.13,0,0,0,30.6,4.2Z"/></g></g></svg>