<?xml version="1.0" encoding="UTF-8"?>
<svg xmlns="http://www.w3.org/2000/svg" xmlns:xlink="http://www.w3.org/1999/xlink" viewBox="0 0 100 100" width="100px" height="100px">
<g id="surface56985791">
<path style=" stroke:none;fill-rule:nonzero;fill:rgb(21.176471%,48.627451%,16.862746%);fill-opacity:1;" d="M 10 16 C 8.558594 15.980469 7.214844 16.738281 6.488281 17.984375 C 5.761719 19.230469 5.761719 20.769531 6.488281 22.015625 C 7.214844 23.261719 8.558594 24.019531 10 24 L 90 24 C 91.441406 24.019531 92.785156 23.261719 93.511719 22.015625 C 94.238281 20.769531 94.238281 19.230469 93.511719 17.984375 C 92.785156 16.738281 91.441406 15.980469 90 16 Z M 10 46 C 8.558594 45.980469 7.214844 46.738281 6.488281 47.984375 C 5.761719 49.230469 5.761719 50.769531 6.488281 52.015625 C 7.214844 53.261719 8.558594 54.019531 10 54 L 90 54 C 91.441406 54.019531 92.785156 53.261719 93.511719 52.015625 C 94.238281 50.769531 94.238281 49.230469 93.511719 47.984375 C 92.785156 46.738281 91.441406 45.980469 90 46 Z M 10 76 C 8.558594 75.980469 7.214844 76.738281 6.488281 77.984375 C 5.761719 79.230469 5.761719 80.769531 6.488281 82.015625 C 7.214844 83.261719 8.558594 84.019531 10 84 L 90 84 C 91.441406 84.019531 92.785156 83.261719 93.511719 82.015625 C 94.238281 80.769531 94.238281 79.230469 93.511719 77.984375 C 92.785156 76.738281 91.441406 75.980469 90 76 Z M 10 76 "/>
</g>
</svg>
